<?xml version="1.0" standalone="no"?>
<!DOCTYPE svg PUBLIC "-//W3C//DTD SVG 20010904//EN"
 "http://www.w3.org/TR/2001/REC-SVG-20010904/DTD/svg10.dtd">
<svg version="1.0" xmlns="http://www.w3.org/2000/svg"
 width="1299.000000pt" height="530.000000pt" viewBox="0 0 1299.000000 530.000000"
 preserveAspectRatio="xMidYMid meet">

<g transform="translate(0.000000,530.000000) scale(0.100000,-0.100000)"
fill="#000000" stroke="none">
<path d="M4231 5208 c-5 -13 -28 -63 -51 -113 -23 -49 -53 -117 -67 -149 -13
-32 -31 -68 -38 -80 -7 -12 -33 -68 -58 -126 -25 -58 -66 -149 -91 -203 -25
-55 -46 -103 -46 -109 0 -6 -8 -8 -17 -5 -10 4 -76 26 -148 51 -210 73 -344
97 -585 103 -162 4 -229 2 -320 -11 -218 -32 -402 -86 -598 -177 -76 -35 -252
-136 -252 -144 0 -2 48 19 106 47 504 237 1074 232 1574 -14 69 -34 130 -62
136 -61 5 0 -2 -23 -16 -51 -14 -28 -48 -100 -75 -161 -26 -60 -65 -146 -85
-190 -21 -44 -135 -296 -255 -560 -120 -264 -241 -532 -270 -595 -29 -63 -85
-187 -125 -275 -39 -88 -75 -164 -79 -168 -4 -4 -20 20 -36 55 -15 35 -33 77
-41 93 -7 17 -40 93 -72 170 -122 287 -235 551 -252 590 -28 63 -208 487 -219
518 l-11 27 -535 0 c-294 0 -535 -2 -535 -5 0 -2 31 -51 68 -107 37 -57 132
-202 211 -323 78 -121 240 -368 358 -550 119 -181 263 -404 321 -495 59 -90
114 -172 124 -182 10 -10 17 -21 16 -24 -1 -3 17 -34 39 -68 115 -172 296
-451 300 -463 3 -7 8 -11 12 -8 4 2 8 -2 8 -9 0 -14 62 -109 75 -114 4 -2 6
-8 2 -13 -3 -5 0 -9 5 -9 6 0 11 -5 11 -11 0 -5 19 -37 43 -71 47 -68 49 -70
95 -145 18 -29 36 -53 40 -53 12 1 397 541 394 553 -2 7 0 9 3 5 4 -4 62 68
128 160 66 92 137 190 157 217 117 157 225 311 222 317 -1 5 2 8 6 8 5 0 24
21 42 48 18 26 50 70 70 97 20 28 144 199 275 380 131 182 264 363 294 404
l56 74 28 -89 c173 -542 77 -1139 -257 -1604 -222 -308 -526 -534 -887 -658
-544 -187 -1125 -108 -1613 218 -191 128 -423 374 -533 565 -20 35 -39 63 -41
61 -2 -2 15 -41 38 -87 305 -606 885 -1013 1560 -1094 598 -73 1213 140 1644
569 309 308 515 724 572 1159 24 183 15 479 -21 647 -37 178 -98 353 -178 513
l-69 138 41 58 c22 32 37 62 33 66 -4 5 -2 6 3 3 6 -4 25 15 43 40 18 26 66
94 107 152 41 58 79 110 84 116 5 6 26 35 47 65 21 30 41 56 44 59 5 5 60 80
303 420 50 69 110 151 134 183 23 33 40 64 36 70 -3 5 -2 7 4 4 6 -4 25 15 43
41 19 26 57 79 85 117 29 39 75 103 103 143 l52 72 -855 0 -855 0 -9 -22z"/>
<path d="M10886 3629 c-64 -50 -103 -174 -165 -524 -79 -441 -115 -767 -115
-1055 -1 -234 7 -284 50 -327 30 -30 73 -26 112 10 49 45 53 72 37 228 -37
350 3 747 120 1191 65 249 85 343 85 401 0 85 -63 124 -124 76z"/>
<path d="M12844 3600 c-48 -11 -103 -48 -120 -83 -20 -38 -14 -103 18 -184 19
-48 27 -59 50 -61 34 -4 100 29 127 64 39 49 73 190 53 220 -19 28 -89 52
-128 44z"/>
<path d="M8813 3035 c-34 -7 -99 -32 -144 -55 -238 -120 -349 -253 -352 -420
-2 -119 46 -173 261 -292 192 -107 260 -154 279 -193 16 -34 16 -35 -7 -60
-75 -80 -352 -138 -498 -105 -116 27 -202 -56 -140 -135 31 -40 77 -55 165
-55 205 0 477 87 582 185 62 58 85 114 79 189 -8 102 -76 167 -282 272 -205
105 -256 150 -256 230 0 92 101 172 313 245 66 24 66 24 121 5 52 -18 56 -18
81 -2 32 21 46 57 39 98 -10 55 -30 76 -86 93 -61 18 -73 18 -155 0z"/>
<path d="M7673 2995 c-173 -48 -330 -195 -450 -420 -86 -163 -118 -298 -111
-470 6 -138 29 -205 96 -272 58 -57 109 -80 209 -95 65 -9 92 -8 158 5 247 50
535 305 501 442 -11 42 -41 30 -126 -50 -146 -136 -267 -202 -390 -212 -136
-11 -203 17 -241 102 -20 44 -24 106 -9 135 6 10 54 44 108 74 238 134 451
313 505 426 66 137 51 257 -38 319 -44 30 -138 37 -212 16z m78 -156 c59 -31
38 -125 -51 -221 -86 -94 -359 -293 -377 -275 -9 9 44 154 79 217 73 131 189
250 268 275 56 17 57 17 81 4z"/>
<path d="M12205 2953 c-107 -56 -291 -315 -625 -881 -29 -49 -46 -69 -51 -60
-18 34 -140 415 -162 508 -15 63 -29 161 -34 244 -9 134 -10 139 -37 162 -15
14 -40 24 -57 24 -73 0 -104 -49 -102 -165 2 -122 34 -250 153 -605 59 -179
111 -344 115 -367 10 -66 83 -126 124 -103 30 16 77 75 117 147 253 461 440
733 609 889 53 48 98 97 101 109 3 12 -1 39 -10 59 -23 54 -81 71 -141 39z"/>
<path d="M9777 2950 c-126 -32 -248 -131 -354 -288 -103 -153 -160 -315 -170
-483 -25 -415 339 -581 687 -314 120 92 235 238 292 370 32 72 58 194 58 267
-1 182 -100 363 -235 428 -40 19 -69 24 -145 26 -52 2 -112 -1 -133 -6z m188
-179 c112 -52 166 -209 132 -382 -26 -131 -74 -217 -181 -325 -205 -206 -405
-213 -462 -16 -68 232 121 655 325 728 53 19 139 17 186 -5z"/>
<path d="M6755 2933 c-167 -70 -350 -286 -495 -585 l-60 -123 5 120 c6 142 24
261 59 405 21 86 24 111 15 138 -32 96 -180 51 -203 -63 -30 -152 -61 -622
-53 -820 9 -211 37 -280 112 -277 74 3 96 33 119 168 51 294 175 535 384 747
110 113 183 135 254 77 70 -58 126 -60 159 -6 37 59 0 159 -77 206 -49 31
-161 38 -219 13z"/>
<path d="M12613 2906 c-26 -19 -49 -89 -57 -171 -3 -33 -21 -148 -40 -255
-102 -579 -88 -773 56 -746 19 3 47 19 62 35 25 26 28 34 22 73 -4 24 -9 113
-12 199 -7 193 8 308 72 545 27 98 47 194 47 228 2 52 -1 60 -24 78 -35 27
-98 34 -126 14z"/>
<path d="M6275 1295 c-69 -25 -104 -81 -91 -148 10 -53 54 -87 148 -114 104
-30 132 -49 136 -95 7 -79 -118 -119 -199 -65 -23 15 -37 35 -43 60 -8 32 -14
37 -38 37 -26 0 -27 -2 -22 -32 15 -78 70 -131 149 -143 117 -17 205 44 205
142 0 87 -33 117 -168 153 -60 16 -88 29 -102 47 -27 34 -25 49 9 84 25 25 37
29 84 29 61 0 101 -23 111 -65 5 -19 13 -25 32 -25 24 0 26 3 21 30 -9 41 -35
78 -67 95 -43 22 -120 27 -165 10z"/>
<path d="M9135 1301 c-31 -14 -64 -54 -70 -86 -4 -21 1 -45 19 -79 l25 -49
-22 -18 c-12 -10 -25 -18 -29 -19 -3 0 -16 -15 -27 -34 -28 -44 -28 -117 -1
-161 19 -30 79 -65 113 -65 32 0 87 23 113 46 27 26 28 26 44 8 35 -43 49 -48
70 -29 20 18 20 19 -16 56 l-36 37 17 46 c20 51 15 76 -14 76 -13 0 -21 -9
-26 -30 -4 -16 -10 -30 -15 -30 -11 0 -80 94 -80 108 0 6 9 16 21 22 29 16 59
70 59 107 0 65 -85 120 -145 94z m81 -76 c13 -20 14 -30 5 -53 -16 -38 -48
-57 -67 -41 -22 18 -42 62 -36 79 15 48 71 56 98 15z m-18 -248 l53 -72 -31
-27 c-59 -54 -140 -28 -156 49 -3 17 -1 41 6 54 11 23 59 69 70 69 3 -1 29
-33 58 -73z"/>
<path d="M9805 1305 c-5 -2 -22 -6 -37 -9 -38 -9 -95 -61 -120 -109 -42 -84
-33 -224 21 -309 37 -58 87 -82 168 -82 75 1 132 33 163 94 24 47 25 66 4 74
-26 10 -30 7 -48 -32 -53 -117 -218 -108 -260 14 -35 104 -10 239 53 281 68
46 173 21 201 -46 8 -21 18 -30 27 -27 8 4 21 6 28 6 21 0 -1 54 -39 94 -38
41 -117 66 -161 51z"/>
<path d="M6970 1050 l0 -250 25 0 25 0 0 250 0 250 -25 0 -25 0 0 -250z"/>
<path d="M7850 1280 c-21 -21 -27 -70 -9 -70 7 0 17 8 24 17 12 17 16 17 65
-1 l51 -18 25 23 c26 25 33 69 9 69 -7 0 -18 -8 -24 -17 -9 -17 -12 -17 -58 0
-60 21 -59 21 -83 -3z"/>
<path d="M11500 1050 l0 -250 25 0 25 0 0 250 0 250 -25 0 -25 0 0 -250z"/>
<path d="M12410 1270 c0 -25 4 -30 25 -30 21 0 25 5 25 30 0 25 -4 30 -25 30
-21 0 -25 -5 -25 -30z"/>
<path d="M11683 1265 c-18 -13 -23 -26 -23 -61 0 -40 -2 -44 -25 -44 -21 0
-25 -5 -25 -30 0 -25 4 -30 25 -30 l24 0 3 -142 3 -143 28 -13 c39 -19 79 -8
75 20 -2 14 -12 24 -28 28 -25 6 -25 7 -28 128 l-3 122 26 0 c21 0 25 5 25 30
0 25 -4 30 -25 30 -23 0 -24 4 -27 60 l-3 60 -22 -15z"/>
<path d="M6672 1149 c-59 -30 -82 -77 -82 -169 0 -96 24 -144 87 -172 74 -33
153 -7 192 62 16 29 21 55 21 112 0 64 -4 80 -27 116 -27 42 -80 72 -126 72
-12 0 -41 -10 -65 -21z m119 -49 c29 -16 49 -64 49 -120 0 -85 -34 -130 -100
-130 -17 0 -40 5 -51 10 -64 35 -66 202 -2 239 23 13 79 14 104 1z"/>
<path d="M7553 1159 c-40 -12 -80 -59 -89 -104 -3 -19 -4 -66 -2 -105 4 -79
24 -116 77 -140 26 -12 31 -20 28 -42 -3 -21 1 -28 17 -30 37 -5 25 -33 -16
-36 -31 -3 -38 -7 -38 -24 0 -19 5 -20 45 -15 76 8 113 67 58 92 -34 14 -28
28 20 50 40 19 87 73 87 100 0 7 -11 15 -25 17 -20 4 -26 1 -31 -19 -9 -32
-41 -53 -85 -53 -29 0 -43 7 -63 31 -23 26 -26 40 -26 101 0 64 2 72 29 99 21
20 39 29 63 29 37 0 78 -23 78 -44 0 -9 9 -12 25 -8 28 5 30 11 13 46 -22 50
-99 75 -165 55z"/>
<path d="M7890 1161 c-79 -25 -110 -77 -110 -181 0 -122 50 -183 150 -184 97
0 150 65 150 184 0 111 -42 170 -130 184 -19 2 -46 1 -60 -3z m91 -61 c29 -16
49 -64 49 -120 0 -85 -34 -130 -100 -130 -17 0 -40 5 -51 10 -64 35 -66 202
-2 239 23 13 79 14 104 1z"/>
<path d="M8244 1160 c-42 -13 -91 -70 -100 -115 -11 -60 0 -152 22 -182 37
-50 71 -67 127 -67 60 0 106 23 131 64 21 37 21 38 -11 42 -21 2 -34 -4 -51
-24 -19 -22 -32 -28 -64 -28 -50 0 -74 13 -93 50 -30 59 -28 60 111 60 l127 0
-6 57 c-11 109 -97 172 -193 143z m110 -72 c13 -13 27 -33 31 -45 6 -23 5 -23
-94 -23 -114 0 -124 8 -72 61 38 37 97 40 135 7z"/>
<path d="M8570 1157 c-63 -22 -87 -110 -43 -159 9 -10 54 -30 99 -44 45 -13
85 -31 88 -39 14 -36 -21 -65 -78 -65 -48 0 -66 9 -80 39 -9 22 -16 26 -39 21
l-27 -5 22 -45 c18 -36 31 -48 63 -58 81 -27 163 6 185 73 24 71 -6 107 -117
141 -46 14 -83 27 -83 29 0 2 -3 10 -6 18 -9 25 24 47 71 47 40 0 75 -18 75
-39 0 -5 11 -6 25 -3 28 5 30 11 14 45 -20 44 -107 66 -169 44z"/>
<path d="M10184 1159 c-41 -12 -91 -69 -100 -114 -11 -60 0 -152 22 -182 36
-48 70 -67 122 -67 102 0 155 61 156 178 1 93 -23 142 -84 174 -47 24 -67 25
-116 11z m111 -71 c52 -45 52 -171 0 -215 -39 -34 -93 -31 -129 6 -48 50 -48
162 1 207 34 32 92 32 128 2z"/>
<path d="M10562 1155 c-18 -8 -35 -21 -38 -30 -9 -24 -24 -18 -24 10 0 18 -5
25 -20 25 -19 0 -20 -7 -20 -180 l0 -180 25 0 25 0 0 114 c0 159 17 195 91
196 62 0 69 -17 69 -173 l0 -137 31 0 31 0 -4 148 c-4 164 -11 186 -63 208
-42 17 -61 17 -103 -1z"/>
<path d="M10883 1162 c-12 -4 -33 -17 -47 -29 -21 -18 -26 -32 -26 -68 0 -60
29 -87 116 -111 93 -25 112 -46 74 -84 -29 -29 -99 -28 -128 3 -12 13 -22 28
-22 34 0 6 -11 8 -25 5 -33 -6 -32 -32 1 -71 68 -81 222 -52 240 45 13 69 -20
102 -132 134 -83 24 -100 43 -68 74 23 24 99 21 124 -4 27 -27 60 -26 60 0 0
52 -95 93 -167 72z"/>
<path d="M11892 1149 c-59 -30 -82 -77 -82 -169 0 -122 50 -184 150 -184 101
0 150 62 150 187 0 60 -4 80 -22 107 -52 75 -122 97 -196 59z m119 -49 c29
-16 49 -64 49 -120 0 -85 -34 -130 -100 -130 -17 0 -40 5 -51 10 -64 35 -66
202 -2 239 23 13 79 14 104 1z"/>
<path d="M12290 1163 c-8 -3 -23 -15 -32 -27 l-18 -21 -6 23 c-4 13 -14 22
-25 22 -18 0 -19 -10 -19 -180 l0 -180 24 0 c24 0 24 0 28 134 3 117 6 137 23
156 15 17 27 21 51 17 27 -5 33 -2 38 16 3 12 2 25 -2 28 -12 11 -46 18 -62
12z"/>
<path d="M12630 1160 c-36 -9 -90 -59 -90 -84 0 -8 11 -16 25 -18 14 -3 25 -1
25 3 0 26 42 49 88 49 54 0 82 -20 82 -59 0 -25 -22 -35 -99 -45 -92 -12 -130
-44 -131 -109 0 -52 15 -76 57 -94 45 -18 100 -10 145 23 l33 25 5 -23 c4 -16
14 -24 34 -26 25 -3 28 -1 21 15 -4 10 -10 74 -12 143 -5 152 -7 166 -36 184
-29 19 -103 27 -147 16z m130 -224 c0 -69 -110 -116 -162 -69 -40 36 -11 72
73 88 92 18 89 19 89 -19z"/>
<path d="M7110 1018 c0 -162 7 -184 63 -211 45 -22 85 -16 127 20 l30 25 0
-26 c0 -21 5 -26 25 -26 l25 0 0 180 0 180 -25 0 c-25 0 -25 0 -25 -97 -1
-162 -23 -213 -94 -213 -65 0 -76 27 -76 184 l0 126 -25 0 -25 0 0 -142z"/>
<path d="M11141 1028 c0 -158 10 -196 59 -221 45 -23 95 -16 132 19 l28 28 0
-27 c0 -22 5 -27 25 -27 l25 0 0 180 0 180 -24 0 c-24 0 -24 0 -27 -131 -4
-129 -4 -131 -32 -155 -36 -31 -87 -32 -113 -3 -16 18 -20 40 -22 155 -4 134
-4 134 -28 134 l-24 0 1 -132z"/>
<path d="M12410 980 l0 -180 25 0 25 0 0 180 0 180 -25 0 -25 0 0 -180z"/>
</g>
</svg>
