<?xml version="1.0" standalone="no"?>
<!DOCTYPE svg PUBLIC "-//W3C//DTD SVG 20010904//EN"
 "http://www.w3.org/TR/2001/REC-SVG-20010904/DTD/svg10.dtd">
<svg version="1.0" xmlns="http://www.w3.org/2000/svg"
 width="597.000000pt" height="530.000000pt" viewBox="0 0 597.000000 530.000000"
 preserveAspectRatio="xMidYMid meet">

<g transform="translate(0.000000,530.000000) scale(0.100000,-0.100000)"
fill="#000000" stroke="none">
<path d="M5085 5222 l-840 -2 -57 -128 c-94 -208 -98 -215 -122 -256 -14 -22
-32 -64 -42 -95 -9 -31 -39 -102 -66 -157 -26 -56 -48 -105 -48 -110 0 -5 -8
-19 -18 -32 l-18 -23 -149 50 c-231 77 -432 111 -650 111 -353 0 -733 -106
-1040 -291 -107 -64 -101 -65 25 -5 139 67 289 117 442 148 100 20 141 23 353
23 211 -1 253 -3 345 -23 152 -33 325 -93 460 -161 65 -32 122 -56 125 -53 3
4 2 -5 -3 -18 -9 -23 -22 -51 -88 -197 -106 -233 -276 -609 -288 -636 -13 -30
-28 -63 -122 -265 -19 -40 -34 -74 -34 -77 0 -3 -81 -179 -162 -355 -22 -48
-82 -180 -157 -350 -27 -61 -53 -105 -61 -105 -8 0 -28 32 -46 75 -17 41 -111
260 -207 485 -96 226 -219 514 -272 640 -53 127 -102 236 -108 243 -8 11 -111
13 -534 10 -288 -2 -523 -6 -523 -11 0 -11 150 -231 164 -239 6 -4 7 -8 3 -8
-5 0 9 -26 31 -57 48 -71 152 -228 172 -263 8 -14 51 -79 94 -145 142 -215
171 -259 181 -277 41 -69 482 -743 499 -760 9 -10 16 -21 15 -24 -1 -5 48 -80
247 -384 49 -74 91 -139 93 -144 2 -4 26 -43 55 -85 56 -83 54 -81 110 -172
21 -35 43 -67 49 -71 6 -4 32 23 61 62 53 72 78 107 304 420 73 102 142 196
152 210 11 14 37 50 57 80 21 30 40 57 43 60 25 20 140 196 136 207 -3 8 -2
12 3 8 12 -7 44 34 238 304 89 124 175 244 191 266 108 149 305 421 372 515
68 95 92 122 101 113 16 -16 79 -268 95 -381 22 -160 15 -433 -16 -586 -111
-561 -473 -1036 -980 -1287 -240 -119 -463 -175 -740 -186 -298 -11 -566 42
-833 166 -308 142 -613 414 -779 694 -22 37 -42 67 -44 67 -6 0 37 -90 78
-162 201 -355 499 -636 863 -813 305 -148 599 -212 935 -202 301 9 546 68 815
196 403 192 723 511 925 924 274 557 274 1189 1 1752 -32 66 -65 129 -74 140
-18 23 -20 18 95 175 43 58 87 119 98 135 12 17 44 62 73 101 29 40 59 82 67
94 8 12 41 57 73 101 31 43 57 83 57 88 0 5 4 11 8 13 7 3 58 68 92 118 8 12
38 52 65 88 57 76 169 230 266 368 36 51 92 128 125 171 33 43 67 89 77 103 9
14 24 35 33 47 8 11 12 23 7 25 -4 1 -386 2 -848 0z"/>
</g>
</svg>
